<mxfile host="app.diagrams.net" modified="2023-01-27T18:31:08.214Z" agent="5.0 (Windows)" etag="Om1RaInOIfdj1YQdrH1q" version="20.8.11" type="github">
  <diagram name="Page-1" id="_drXOrPgHEnCKHgYDRfn">
    <mxGraphModel dx="766" dy="1180" grid="1" gridSize="10" guides="1" tooltips="1" connect="1" arrows="1" fold="1" page="1" pageScale="1" pageWidth="850" pageHeight="1100" math="0" shadow="0">
      <root>
        <mxCell id="0" />
        <mxCell id="1" parent="0" />
        <mxCell id="OY9QgAVdFtcm1IzDkcS8-1" value="&lt;p style=&quot;margin:0px;margin-top:4px;text-align:center;&quot;&gt;&lt;i&gt;&amp;lt;&amp;lt;Interface&amp;gt;&amp;gt;&lt;/i&gt;&lt;/p&gt;&lt;p style=&quot;margin:0px;margin-top:4px;text-align:center;&quot;&gt;&lt;b&gt;BowlBehvaior&lt;/b&gt;&lt;b&gt;&lt;br&gt;&lt;/b&gt;&lt;/p&gt;&lt;hr size=&quot;1&quot;&gt;&lt;p style=&quot;margin:0px;margin-left:4px;&quot;&gt;+ Catch(consumable : BoxCollider2D): float&lt;br&gt;&lt;/p&gt;" style="verticalAlign=top;align=left;overflow=fill;fontSize=12;fontFamily=Helvetica;html=1;" parent="1" vertex="1">
          <mxGeometry x="300" y="30" width="250" height="70" as="geometry" />
        </mxCell>
        <mxCell id="OY9QgAVdFtcm1IzDkcS8-2" value="&lt;p style=&quot;margin:0px;margin-top:4px;text-align:center;&quot;&gt;&lt;b&gt;CatchRed&lt;/b&gt;&lt;/p&gt;&lt;hr size=&quot;1&quot;&gt;+ Catch(consumable : BoxCollider2D): float" style="verticalAlign=top;align=left;overflow=fill;fontSize=12;fontFamily=Helvetica;html=1;" parent="1" vertex="1">
          <mxGeometry x="50" y="140" width="250" height="60" as="geometry" />
        </mxCell>
        <mxCell id="hLs7GmLyj4tSTQkJ18Le-1" value="&lt;p style=&quot;margin:0px;margin-top:4px;text-align:center;&quot;&gt;&lt;b&gt;CatchYellow&lt;/b&gt;&lt;/p&gt;&lt;hr size=&quot;1&quot;&gt;+ Catch(consumable : BoxCollider2D): float" style="verticalAlign=top;align=left;overflow=fill;fontSize=12;fontFamily=Helvetica;html=1;" parent="1" vertex="1">
          <mxGeometry x="550" y="140" width="250" height="60" as="geometry" />
        </mxCell>
        <mxCell id="hLs7GmLyj4tSTQkJ18Le-2" value="&lt;p style=&quot;margin:0px;margin-top:4px;text-align:center;&quot;&gt;&lt;b&gt;CatchOrange&lt;/b&gt;&lt;/p&gt;&lt;hr size=&quot;1&quot;&gt;+ Catch(consumable : BoxCollider2D): float" style="verticalAlign=top;align=left;overflow=fill;fontSize=12;fontFamily=Helvetica;html=1;" parent="1" vertex="1">
          <mxGeometry x="300" y="250" width="250" height="60" as="geometry" />
        </mxCell>
        <mxCell id="hLs7GmLyj4tSTQkJ18Le-3" value="&lt;p style=&quot;margin:0px;margin-top:4px;text-align:center;&quot;&gt;&lt;b&gt;Bowl&lt;/b&gt;&lt;br&gt;&lt;/p&gt;&lt;hr size=&quot;1&quot;&gt;&lt;p style=&quot;margin:0px;margin-left:4px;&quot;&gt;+ bowlBehavior: BowlBehavior&lt;/p&gt;&lt;hr size=&quot;1&quot;&gt;&lt;p style=&quot;margin:0px;margin-left:4px;&quot;&gt;+ Catch(consumable : BoxCollider2D): float&lt;/p&gt;" style="verticalAlign=top;align=left;overflow=fill;fontSize=12;fontFamily=Helvetica;html=1;" parent="1" vertex="1">
          <mxGeometry x="250" y="490" width="250" height="90" as="geometry" />
        </mxCell>
      </root>
    </mxGraphModel>
  </diagram>
</mxfile>
